<svg width="128" height="128" viewBox="0 0 128 128" fill="none" xmlns="http://www.w3.org/2000/svg">
  <!-- Background -->
  <rect width="128" height="128" rx="24" fill="#0A66C2"/>
  
  <!-- AI logo -->
  <text x="16" y="80" font-family="Arial, sans-serif" font-size="48" font-weight="bold" fill="white">AI</text>
  
  <!-- Comment bubble -->
  <g transform="translate(65, 45)">
    <path d="M25 2C33.8366 2 41 9.16344 41 18C41 26.8366 33.8366 34 25 34C23.8369 34 22.7026 33.8764 21.6094 33.6406L14.5 38.5V30.1406C10.4565 27.3995 8 22.9668 8 18C8 9.16344 15.1634 2 24 2H25Z" 
          fill="white" 
          stroke="#0A66C2" 
          stroke-width="2"/>
    
    <!-- AI sparkles inside comment bubble -->
    <g transform="translate(16, 10)">
      <path d="M9 0L10.5 3L13.5 4.5L10.5 6L9 9L7.5 6L4.5 4.5L7.5 3L9 0Z" fill="#0A66C2"/>
      <path d="M4 7L4.75 8.5L6.25 9.25L4.75 10L4 11.5L3.25 10L1.75 9.25L3.25 8.5L4 7Z" fill="#0A66C2"/>
      <path d="M13 9L13.5 10L14.5 10.5L13.5 11L13 12L12.5 11L11.5 10.5L12.5 10L13 9Z" fill="#0A66C2"/>
    </g>
  </g>
</svg>